<svg width="20" height="20" viewBox="0 0 20 20" fill="none" xmlns="http://www.w3.org/2000/svg">
<rect width="20" height="20" rx="10" fill="#7C3AED"/>
<path d="M7.75355 6.72727H6.30824L4.50781 7.86719V9.23082L6.1733 8.18679H6.21591V14H7.75355V6.72727ZM9.48207 14H14.6667V12.7429H11.6127V12.6932L12.6745 11.6527C14.1696 10.2891 14.5708 9.60724 14.5708 8.77983C14.5708 7.51918 13.541 6.62784 11.9821 6.62784C10.4551 6.62784 9.40749 7.54048 9.41104 8.96804H10.8706C10.867 8.27202 11.3074 7.84588 11.9714 7.84588C12.6106 7.84588 13.0865 8.24361 13.0865 8.88281C13.0865 9.46165 12.7314 9.85938 12.0708 10.495L9.48207 12.892V14Z" fill="white"/>
</svg>
